<svg height="800px" width="800px" version="1.1" id="parrot" xmlns="http://www.w3.org/2000/svg" xmlns:xlink="http://www.w3.org/1999/xlink" viewBox="0 0 511.979 511.979" xml:space="preserve" preserveAspectRatio="xMidYMid" style="fill: rgb(0, 0, 0); stroke: none; stroke-width: 1px; stroke-linejoin: miter; stroke-linecap: butt; stroke-miterlimit: 4; opacity: 1; filter: none;">
<defs id="defs2527"></defs><path style="fill: rgb(255, 206, 84); stroke: none; stroke-width: 1px; stroke-linejoin: miter; stroke-linecap: butt; stroke-miterlimit: 4; opacity: 1; filter: none;" d=" M 309.316,437.311 c -5.891,0 -10.656 -4.766 -10.656 -10.655 v -43.39 c 0 -5.906,4.766 -10.671,10.656 -10.671 s 10.671,4.765,10.671,10.671 v 43.39 C 319.987,432.546,315.206,437.311,309.316,437.311 z " id="path7533"></path>
<path style="fill:#A85D5D;" d=" M 501.306,437.311 H 10.671 C 4.781,437.311,0,432.545,0,426.656 c 0 -5.891,4.781 -10.672,10.671 -10.672 h 490.636 c 5.891,0,10.672,4.781,10.672,10.672 C 511.978,432.546,507.197,437.311,501.306,437.311 z " id="path1282"></path>

<path style="fill: rgb(246, 187, 66); stroke: none; stroke-width: 1px; stroke-linejoin: miter; stroke-linecap: butt; stroke-miterlimit: 4; opacity: 1; filter: none;" d="M 424.608 114.605 L 389.31100000000004 66.21600000000001 C 387.09200000000004 63.16900000000001 383.42 61.513000000000005 379.67100000000005 61.87200000000001 L 308.76900000000006 68.73100000000001 C 303.30000000000007 69.24700000000001 299.12800000000004 73.84 299.12800000000004 79.34 L 299.12800000000004 138.666 C 299.12800000000004 143.55599999999998 302.456 147.821 307.206 149.009 L 348.625 159.367 C 349.469 159.58599999999998 350.344 159.679 351.219 159.679 C 351.235 159.679 351.266 159.679 351.29699999999997 159.679 C 395.20099999999996 159.351 422.76399999999995 129.306 423.904 128.025 C 427.279 124.277 427.576 118.668 424.608 114.605 Z" id="path7513" transform="matrix(0.7385923266410828 0 0 0.45978811383247375 107.28659057617188 79.189453125)"><animateTransform attributeName="transform" attributeType="auto" type="rotate" values="0 299.12799072265625 61.82358169555664;30 299.12799072265625 61.82358169555664;0 299.12799072265625 61.82358169555664" calcMode="spline" keyTimes="0;0.199;1" keySplines="0 0 1 1;.5 0 .5 1" dur="0.4s" begin="0s" repeatCount="indefinite" additive="sum" accumulate="none" id="animateTransform3343" style="stroke: none; stroke-width: 1px; stroke-linejoin: miter; stroke-linecap: butt; stroke-miterlimit: 4; opacity: 1; filter: none; fill: rgb(246, 187, 66);"></animateTransform></path><path style="fill:#8ABE52;" d=" M 350.454,150.495 c -0.969 -1.297 -2.219 -2.359 -3.656 -3.109 L 228.881,86.512 c -3.297 -1.703 -7.265 -1.562 -10.437,0.375 c -3.188,1.938 -5.125,5.391 -5.125,9.109 v 90.902 c -7.562,7.141 -20.999,24.687 -33.983,65.889 c -32.217,102.323 -51.045,235.053 -51.232,236.38 c -0.438,3.062,0.484,6.141,2.516,8.484 c 2.016,2.328,4.953,3.656,8.046,3.656 h 21.327 c 3.562,0,6.89 -1.781,8.875 -4.75 l 40.374 -60.544 c 12.469 -3.219,50.498 -13.952,89.06 -34.279 c 27.436 -14.469,49.419 -30.827,65.31 -48.624 c 20.592 -23.062,31.045 -48.56,31.045 -75.793 C 394.655,210.554,352.251,152.916,350.454,150.495 z " id="path5375"></path>
<path style="fill: rgb(255, 206, 84); stroke: none; stroke-width: 1px; stroke-linejoin: miter; stroke-linecap: butt; stroke-miterlimit: 4; opacity: 1; filter: none;" d=" M 401.108,45.171 c -22.921 -11.75 -46.373 -12.094 -48.967 -12.094 l -0.297,0.016 c -3.406,0.047 -6.594,1.719 -8.562,4.516 c -1.969,2.781 -2.5,6.344 -1.391,9.562 l 21.328,62.92 c 1.062,3.155,3.562,5.64,6.718,6.687 l 63.998,21.344 c 1.109,0.359,2.25,0.547,3.375,0.547 c 2.219,0,4.405 -0.688,6.233 -2.016 c 2.781 -2,4.438 -5.219,4.438 -8.656 C 447.981,79.42,422.483,56.139,401.108,45.171 z " id="path4773"></path>
<path style="fill: rgb(160, 212, 104); stroke: none; stroke-width: 1px; stroke-linejoin: miter; stroke-linecap: butt; stroke-miterlimit: 4; opacity: 1; filter: none;" d=" M 298.66,10.672 c -47.061,0 -85.341,38.28 -85.341,85.325 s 38.28,85.324,85.341,85.324 c 47.044,0,85.323 -38.279,85.323 -85.324 S 345.704,10.672,298.66,10.672 z " id="path3793"></path>
<path style="fill: rgb(67, 74, 84); stroke: none; stroke-width: 1px; stroke-linejoin: miter; stroke-linecap: butt; stroke-miterlimit: 4; opacity: 1; filter: none;" d=" M 309.316,96.544 c 0,5.891 -4.766,10.656 -10.656,10.656 s -10.672 -4.766 -10.672 -10.656 s 4.781 -10.672,10.672 -10.672 S 309.316,90.653,309.316,96.544 z " id="path1479"></path>

<path style="fill: rgb(218, 68, 83); stroke: none; stroke-width: 1px; stroke-linejoin: miter; stroke-linecap: butt; stroke-miterlimit: 4; opacity: 1; filter: none;" d=" M 134.369,449.639 c -4.047,23.873 -6.203,39.076 -6.266,39.528 c -0.438,3.062,0.484,6.141,2.516,8.484 c 2.016,2.328,4.953,3.656,8.046,3.656 h 21.327 c 3.562,0,6.89 -1.781,8.875 -4.75 l 34.202 -51.294 L 134.369,449.639 z " id="path9419"></path>
<path style="fill: rgb(237, 85, 100); stroke: none; stroke-width: 1px; stroke-linejoin: miter; stroke-linecap: butt; stroke-miterlimit: 4; opacity: 1; filter: none;" d=" M 351.844,254.724 c -2.391 -18.827 -12.078 -36.67 -27.249 -50.232 c -15.717 -14.046 -35.686 -21.78 -56.248 -21.78 c -17.436,0 -34.529,5.359 -50.81,15.922 c -17.671,11.452 -33.905,28.857 -48.233,51.686 c -17.484,27.89 -29.827,70.7 -36.67,127.244 c -5.031,41.577 -5.094,74.748 -5.094,76.139 c 0,5.891,4.781,10.654,10.671,10.654 c 30.624,0,61.263 -7.795,91.059 -23.17 c 26.827 -13.843,51.904 -33.53,72.514 -56.92 C 338.173,342.939,356.891,294.52,351.844,254.724 z " id="path810"></path></svg>
